<?xml version="1.0" encoding="iso-8859-1"?>
<!-- Generator: Adobe Illustrator 16.0.0, SVG Export Plug-In . SVG Version: 6.00 Build 0)  -->
<!DOCTYPE svg PUBLIC "-//W3C//DTD SVG 1.1//EN" "http://www.w3.org/Graphics/SVG/1.1/DTD/svg11.dtd">
<svg version="1.1" id="Capa_1" xmlns="http://www.w3.org/2000/svg" xmlns:xlink="http://www.w3.org/1999/xlink" x="0px" y="0px"
	 width="93.268px" height="93.268px" viewBox="0 0 93.268 93.268" style="enable-background:new 0 0 93.268 93.268;"
	 xml:space="preserve">
<g>
	<g>
		<path d="M71.065,4.551V4.035C71.065,1.807,69.259,0,67.03,0H26.225c-2.229,0-4.035,1.807-4.035,4.035v1.474h0.018v82.25H22.19
			v1.474c0,2.229,1.807,4.035,4.035,4.035H67.03c2.229,0,4.035-1.807,4.035-4.035v-0.974h0.012V4.551H71.065z M47.197,12.953
			c0.412-0.484,1.11-0.845,1.688-0.869c0.074,0.673-0.195,1.347-0.597,1.832c-0.402,0.485-1.059,0.862-1.701,0.812
			C46.5,14.069,46.824,13.383,47.197,12.953z M35.806,3.862c0,1.453-1.178,2.63-2.63,2.63H27.85c-1.452,0-2.63-1.178-2.63-2.63
			V3.788c0-1.453,1.178-2.63,2.63-2.63h5.326c1.452,0,2.63,1.178,2.63,2.63V3.862z M50.479,22.131
			c-0.479,0.698-0.975,1.394-1.756,1.409c-0.771,0.014-1.016-0.456-1.896-0.456c-0.877,0-1.152,0.441-1.879,0.47
			c-0.754,0.028-1.328-0.754-1.811-1.452c-0.986-1.423-1.738-4.023-0.727-5.779c0.502-0.872,1.398-1.423,2.373-1.438
			c0.74-0.013,1.439,0.499,1.893,0.499s1.303-0.616,2.195-0.526c0.375,0.016,1.424,0.151,2.098,1.137
			c-0.053,0.035-1.252,0.731-1.237,2.184c0.017,1.735,1.521,2.313,1.541,2.321C51.261,20.54,51.031,21.322,50.479,22.131z"/>
		<circle cx="28.266" cy="3.755" r="1.72"/>
		<circle cx="33.328" cy="3.755" r="1.168"/>
	</g>
</g>
<g>
</g>
<g>
</g>
<g>
</g>
<g>
</g>
<g>
</g>
<g>
</g>
<g>
</g>
<g>
</g>
<g>
</g>
<g>
</g>
<g>
</g>
<g>
</g>
<g>
</g>
<g>
</g>
<g>
</g>
</svg>
