<svg height="512pt" viewBox="-49 0 511 512" width="512pt" xmlns="http://www.w3.org/2000/svg"><path d="m155.351562 31.691406h35.679688v36.382813c10.386719-.691407 21.28125-.691407 31.691406 0v-36.382813h35.675782c8.753906 0 15.847656-7.09375 15.847656-15.847656 0-8.75-7.09375-15.84375-15.84375-15.84375-9.035156 0-84.539063 0-103.050782 0-8.75 0-15.84375 7.09375-15.84375 15.847656 0 8.75 7.09375 15.84375 15.84375 15.84375zm0 0"/><path d="m206.878906 99.246094c-113.796875 0-206.378906 92.582031-206.378906 206.375 0 113.796875 92.582031 206.378906 206.378906 206.378906 113.792969 0 206.375-92.582031 206.375-206.378906 0-113.792969-92.582031-206.375-206.375-206.375zm105.40625 109.125-93.4375 107.648437c-5.730468 6.578125-15.71875 7.324219-22.355468 1.574219-6.613282-5.738281-7.320313-15.753906-1.582032-22.355469l93.4375-107.636719c5.734375-6.613281 15.738282-7.320312 22.351563-1.582031 6.613281 5.734375 7.320312 15.75 1.585937 22.351563zm0 0"/></svg>